<svg width="39" height="39" viewBox="0 0 39 39" fill="none" xmlns="http://www.w3.org/2000/svg">
<path d="M11.375 35.75C10.4813 35.75 9.71642 35.432 9.08051 34.7961C8.44459 34.1602 8.12609 33.3948 8.12501 32.5C8.12392 31.6052 8.44242 30.8403 9.08051 30.2055C9.71859 29.5707 10.4834 29.2522 11.375 29.25C12.2666 29.2478 13.032 29.5663 13.6711 30.2055C14.3103 30.8447 14.6283 31.6095 14.625 32.5C14.6218 33.3905 14.3038 34.1559 13.6711 34.7961C13.0385 35.4364 12.2731 35.7543 11.375 35.75ZM27.625 35.75C26.7313 35.75 25.9664 35.432 25.3305 34.7961C24.6946 34.1602 24.3761 33.3948 24.375 32.5C24.3739 31.6052 24.6924 30.8403 25.3305 30.2055C25.9686 29.5707 26.7334 29.2522 27.625 29.25C28.5166 29.2478 29.282 29.5663 29.9211 30.2055C30.5603 30.8447 30.8783 31.6095 30.875 32.5C30.8718 33.3905 30.5538 34.1559 29.9211 34.7961C29.2885 35.4364 28.5231 35.7543 27.625 35.75ZM4.87501 6.5H3.25001C2.78959 6.5 2.40392 6.344 2.09301 6.032C1.78209 5.72 1.62609 5.33433 1.62501 4.875C1.62392 4.41567 1.77992 4.03 2.09301 3.718C2.40609 3.406 2.79176 3.25 3.25001 3.25H5.93126C6.22917 3.25 6.51355 3.33125 6.78438 3.49375C7.05521 3.65625 7.25834 3.88646 7.39376 4.18437L13.8531 17.875H25.2281L31.1188 7.3125C31.2542 7.04167 31.4438 6.83854 31.6875 6.70312C31.9313 6.56771 32.2021 6.5 32.5 6.5C33.1229 6.5 33.5904 6.76433 33.9024 7.293C34.2144 7.82167 34.2209 8.35629 33.9219 8.89687L28.1125 19.4187C27.8146 19.9604 27.4154 20.3802 26.9149 20.6781C26.4144 20.976 25.8657 21.125 25.2688 21.125H13.1625L11.375 24.375H29.25C29.7104 24.375 30.0966 24.531 30.4086 24.843C30.7206 25.155 30.8761 25.5407 30.875 26C30.8739 26.4593 30.7179 26.8455 30.407 27.1586C30.0961 27.4717 29.7104 27.6272 29.25 27.625H11.375C10.1563 27.625 9.22838 27.0969 8.59138 26.0406C7.95438 24.9844 7.93434 23.9146 8.53126 22.8312L10.725 18.85L4.87501 6.5Z" fill="#0D0D0D"/>
</svg>
