<svg width="24" height="24" viewBox="0 0 24 24" fill="none" xmlns="http://www.w3.org/2000/svg">
<path d="M3 3H3.268C3.742 3 3.979 3 4.173 3.085C4.343 3.161 4.489 3.282 4.593 3.436C4.713 3.61 4.756 3.843 4.841 4.307L7 16H17.422C17.875 16 18.102 16 18.29 15.92C18.4556 15.8491 18.599 15.7347 18.705 15.589C18.825 15.424 18.876 15.204 18.978 14.763V14.76L20.548 7.96C20.702 7.291 20.78 6.955 20.695 6.692C20.6199 6.46137 20.4635 6.26591 20.255 6.142C20.019 6 19.676 6 18.99 6H5.5M18 21C17.7348 21 17.4804 20.8946 17.2929 20.7071C17.1054 20.5196 17 20.2652 17 20C17 19.7348 17.1054 19.4804 17.2929 19.2929C17.4804 19.1054 17.7348 19 18 19C18.2652 19 18.5196 19.1054 18.7071 19.2929C18.8946 19.4804 19 19.7348 19 20C19 20.2652 18.8946 20.5196 18.7071 20.7071C18.5196 20.8946 18.2652 21 18 21ZM8 21C7.73478 21 7.48043 20.8946 7.29289 20.7071C7.10536 20.5196 7 20.2652 7 20C7 19.7348 7.10536 19.4804 7.29289 19.2929C7.48043 19.1054 7.73478 19 8 19C8.26522 19 8.51957 19.1054 8.70711 19.2929C8.89464 19.4804 9 19.7348 9 20C9 20.2652 8.89464 20.5196 8.70711 20.7071C8.51957 20.8946 8.26522 21 8 21Z" stroke="#1656A0" stroke-width="2" stroke-linecap="round" stroke-linejoin="round"/>
<path d="M14.374 12.048C14.4627 12.048 14.528 12.083 14.57 12.153C14.6167 12.2183 14.64 12.2907 14.64 12.37C14.64 12.468 14.6237 12.538 14.591 12.58C14.563 12.6173 14.507 12.657 14.423 12.699C14.227 12.7923 13.9843 12.867 13.695 12.923C13.4057 12.979 13.0953 13.007 12.764 13.007C12.3487 13.007 12.043 12.937 11.847 12.797C11.6557 12.657 11.5367 12.489 11.49 12.293C11.448 12.0923 11.427 11.831 11.427 11.509C11.427 11.1637 11.441 10.8253 11.469 10.494C11.497 10.158 11.546 9.731 11.616 9.213C11.6487 8.989 11.7373 8.828 11.882 8.73C12.0267 8.62733 12.1853 8.576 12.358 8.576C12.5027 8.576 12.7383 8.57133 13.065 8.562L13.674 8.555C13.926 8.555 14.108 8.562 14.22 8.576C14.36 8.604 14.4627 8.63667 14.528 8.674C14.598 8.70667 14.633 8.765 14.633 8.849C14.633 8.94233 14.6003 9.03333 14.535 9.122C14.4743 9.21067 14.381 9.255 14.255 9.255C14.1103 9.255 13.9027 9.24567 13.632 9.227C13.3613 9.20833 13.1583 9.199 13.023 9.199C12.9063 9.199 12.792 9.206 12.68 9.22C12.5493 9.22933 12.456 9.24567 12.4 9.269C12.344 9.29233 12.3113 9.332 12.302 9.388C12.2367 9.86867 12.204 10.2233 12.204 10.452C12.3113 10.466 12.4163 10.473 12.519 10.473C12.6497 10.473 12.7897 10.466 12.939 10.452C13.0883 10.438 13.184 10.4287 13.226 10.424C13.4733 10.4007 13.6857 10.389 13.863 10.389C13.9657 10.389 14.0427 10.4077 14.094 10.445C14.15 10.4823 14.178 10.5337 14.178 10.599C14.178 10.7017 14.15 10.781 14.094 10.837C14.0427 10.893 13.9493 10.935 13.814 10.963C13.6507 10.9957 13.4477 11.0213 13.205 11.04C12.967 11.0587 12.7337 11.068 12.505 11.068C12.4257 11.068 12.316 11.0633 12.176 11.054C12.162 11.3387 12.155 11.6023 12.155 11.845C12.155 12.1763 12.3743 12.342 12.813 12.342C13.0463 12.342 13.24 12.3257 13.394 12.293C13.548 12.2603 13.7253 12.2137 13.926 12.153C14.1127 12.083 14.262 12.048 14.374 12.048Z" fill="#1656A0"/>
</svg>
