<svg width="31" height="31" viewBox="0 0 31 31" fill="none" xmlns="http://www.w3.org/2000/svg">
<path d="M17.4377 28.4167C15.1127 28.4167 13.1321 27.5987 11.496 25.9625C9.85988 24.3264 9.04183 22.3459 9.04183 20.0209V19.2782C7.19044 18.9768 5.6512 18.1101 4.42412 16.678C3.19704 15.246 2.5835 13.5617 2.5835 11.625V5.16671C2.5835 4.80074 2.7075 4.49418 2.9555 4.24705C3.2035 3.99991 3.51005 3.87591 3.87516 3.87505H6.4585C6.4585 3.50907 6.5825 3.20252 6.8305 2.95538C7.0785 2.70824 7.38505 2.58424 7.75016 2.58338C8.11527 2.58252 8.42226 2.70652 8.67112 2.95538C8.91998 3.20424 9.04355 3.5108 9.04183 3.87505V6.45838C9.04183 6.82435 8.91783 7.13134 8.66983 7.37934C8.42183 7.62734 8.11527 7.75091 7.75016 7.75004C7.38505 7.74918 7.0785 7.62518 6.8305 7.37804C6.5825 7.13091 6.4585 6.82435 6.4585 6.45838H5.16683V11.625C5.16683 13.0459 5.67273 14.2622 6.68454 15.274C7.69634 16.2858 8.91266 16.7917 10.3335 16.7917C11.7543 16.7917 12.9706 16.2858 13.9825 15.274C14.9943 14.2622 15.5002 13.0459 15.5002 11.625V6.45838H14.2085C14.2085 6.82435 14.0845 7.13134 13.8365 7.37934C13.5885 7.62734 13.2819 7.75091 12.9168 7.75004C12.5517 7.74918 12.2452 7.62518 11.9972 7.37804C11.7492 7.13091 11.6252 6.82435 11.6252 6.45838V3.87505C11.6252 3.50907 11.7492 3.20252 11.9972 2.95538C12.2452 2.70824 12.5517 2.58424 12.9168 2.58338C13.2819 2.58252 13.5889 2.70652 13.8378 2.95538C14.0866 3.20424 14.2102 3.5108 14.2085 3.87505H16.7918C17.1578 3.87505 17.4648 3.99905 17.7128 4.24705C17.9608 4.49505 18.0844 4.8016 18.0835 5.16671V11.625C18.0835 13.5625 17.47 15.2473 16.2429 16.6793C15.0158 18.1114 13.4766 18.9776 11.6252 19.2782V20.0209C11.6252 21.6355 12.1905 23.0081 13.3211 24.1387C14.4518 25.2694 15.8239 25.8342 17.4377 25.8334C19.0514 25.8325 20.424 25.2676 21.5555 24.1387C22.687 23.0098 23.2519 21.6372 23.2502 20.0209V17.8573C22.4967 17.5775 21.878 17.109 21.394 16.452C20.9101 15.795 20.6677 15.0471 20.6668 14.2084C20.6668 13.132 21.0436 12.2171 21.797 11.4636C22.5505 10.7101 23.4654 10.3334 24.5418 10.3334C25.6182 10.3334 26.5331 10.7101 27.2866 11.4636C28.0401 12.2171 28.4168 13.132 28.4168 14.2084C28.4168 15.048 28.1749 15.7963 27.6909 16.4533C27.207 17.1103 26.5878 17.5783 25.8335 17.8573V20.0209C25.8335 22.3459 25.0154 24.3264 23.3793 25.9625C21.7432 27.5987 19.7627 28.4167 17.4377 28.4167ZM24.5418 15.5C24.9078 15.5 25.2148 15.376 25.4628 15.128C25.7108 14.88 25.8344 14.5735 25.8335 14.2084C25.8326 13.8433 25.7086 13.5367 25.4615 13.2887C25.2144 13.0407 24.9078 12.9167 24.5418 12.9167C24.1759 12.9167 23.8693 13.0407 23.6222 13.2887C23.375 13.5367 23.251 13.8433 23.2502 14.2084C23.2493 14.5735 23.3733 14.8805 23.6222 15.1293C23.871 15.3782 24.1776 15.5018 24.5418 15.5Z" fill="white"/>
</svg>
