<svg width="69" height="69" viewBox="0 0 69 69" fill="none" xmlns="http://www.w3.org/2000/svg">
<path d="M25.875 14.375C27.4 14.375 28.8625 14.9808 29.9409 16.0591C31.0192 17.1375 31.625 18.6 31.625 20.125V37.375C31.625 46.3738 26.8813 52.3049 17.9486 54.5387C17.5814 54.6335 17.199 54.6547 16.8235 54.6011C16.4481 54.5475 16.0869 54.4201 15.7609 54.2263C15.4349 54.0324 15.1505 53.776 14.924 53.4718C14.6975 53.1676 14.5334 52.8215 14.4413 52.4536C14.3491 52.0857 14.3306 51.7032 14.3869 51.3281C14.4433 50.9531 14.5732 50.5928 14.7694 50.2682C14.9655 49.9436 15.2239 49.661 15.5298 49.4367C15.8356 49.2124 16.1828 49.0508 16.5514 48.9613C22.954 47.3599 25.875 43.7086 25.875 37.375V34.5H17.25C15.7993 34.5005 14.4021 33.9526 13.3384 32.9662C12.2747 31.9798 11.6232 30.6278 11.5144 29.1812L11.5 28.75V20.125C11.5 18.6 12.1058 17.1375 13.1841 16.0591C14.2625 14.9808 15.725 14.375 17.25 14.375H25.875ZM51.75 14.375C53.275 14.375 54.7375 14.9808 55.8159 16.0591C56.8942 17.1375 57.5 18.6 57.5 20.125V37.375C57.5 46.3738 52.7563 52.3049 43.8236 54.5387C43.4564 54.6335 43.074 54.6547 42.6985 54.6011C42.3231 54.5475 41.9619 54.4201 41.6359 54.2263C41.3099 54.0324 41.0255 53.776 40.799 53.4718C40.5725 53.1676 40.4084 52.8215 40.3163 52.4536C40.2241 52.0857 40.2056 51.7032 40.2619 51.3281C40.3183 50.9531 40.4482 50.5928 40.6444 50.2682C40.8405 49.9436 41.0989 49.661 41.4048 49.4367C41.7106 49.2124 42.0578 49.0508 42.4264 48.9613C48.829 47.3599 51.75 43.7086 51.75 37.375V34.5H43.125C41.6743 34.5005 40.2771 33.9526 39.2134 32.9662C38.1497 31.9798 37.4982 30.6278 37.3894 29.1812L37.375 28.75V20.125C37.375 18.6 37.9808 17.1375 39.0591 16.0591C40.1375 14.9808 41.6 14.375 43.125 14.375H51.75Z" fill="#E4E9FD"/>
</svg>
