<svg width="45" height="45" viewBox="0 0 45 45" fill="none" xmlns="http://www.w3.org/2000/svg">
<path d="M13.125 19.8694C13.125 19.4964 13.2732 19.1387 13.5369 18.875C13.8006 18.6113 14.1583 18.4631 14.5312 18.4631H30.4688C30.8417 18.4631 31.1994 18.6113 31.4631 18.875C31.7268 19.1387 31.875 19.4964 31.875 19.8694C31.875 20.2423 31.7268 20.6 31.4631 20.8638C31.1994 21.1275 30.8417 21.2756 30.4688 21.2756H14.5312C14.1583 21.2756 13.8006 21.1275 13.5369 20.8638C13.2732 20.6 13.125 20.2423 13.125 19.8694ZM14.5312 24.0881C14.1583 24.0881 13.8006 24.2363 13.5369 24.5C13.2732 24.7637 13.125 25.1214 13.125 25.4944C13.125 25.8673 13.2732 26.225 13.5369 26.4888C13.8006 26.7525 14.1583 26.9006 14.5312 26.9006H23.9062C24.2792 26.9006 24.6369 26.7525 24.9006 26.4888C25.1643 26.225 25.3125 25.8673 25.3125 25.4944C25.3125 25.1214 25.1643 24.7637 24.9006 24.5C24.6369 24.2363 24.2792 24.0881 23.9062 24.0881H14.5312Z" fill="#00C6FF"/>
<path fill-rule="evenodd" clip-rule="evenodd" d="M4.68751 22.68C4.68751 19.157 5.7322 15.7132 7.68946 12.7839C9.64672 9.85466 12.4287 7.57158 15.6835 6.2234C18.9383 4.87521 22.5198 4.52246 25.9751 5.20976C29.4303 5.89706 32.6042 7.59354 35.0953 10.0847C37.5865 12.5758 39.2829 15.7497 39.9702 19.205C40.6575 22.6602 40.3048 26.2417 38.9566 29.4965C37.6084 32.7514 35.3254 35.5333 32.3961 37.4906C29.4669 39.4478 26.023 40.4925 22.5 40.4925H6.09376C5.81581 40.4923 5.54417 40.4097 5.31314 40.2551C5.08211 40.1006 4.90206 39.881 4.79572 39.6242C4.68939 39.3674 4.66154 39.0849 4.7157 38.8122C4.76986 38.5396 4.90359 38.2892 5.10001 38.0925L8.94939 34.2412C6.1943 31.0198 4.68259 26.9189 4.68751 22.68ZM22.5 7.68C19.5332 7.67989 16.633 8.55957 14.1662 10.2078C11.6993 11.856 9.77666 14.1987 8.6413 16.9397C7.50594 19.6806 7.20889 22.6967 7.78772 25.6065C8.36654 28.5163 9.79524 31.1891 11.8931 33.2869C12.1565 33.5505 12.3044 33.908 12.3044 34.2806C12.3044 34.6533 12.1565 35.0107 11.8931 35.2744L9.48939 37.68H22.5C26.4783 37.68 30.2936 36.0996 33.1066 33.2866C35.9197 30.4736 37.5 26.6582 37.5 22.68C37.5 18.7018 35.9197 14.8864 33.1066 12.0734C30.2936 9.26035 26.4783 7.68 22.5 7.68Z" fill="#00C6FF"/>
</svg>
