<svg width="45" height="45" viewBox="0 0 45 45" fill="none" xmlns="http://www.w3.org/2000/svg">
<path d="M22.4998 39.8438C26.2674 39.843 29.9323 38.6153 32.9402 36.3465C35.9481 34.0778 38.1354 30.8912 39.1714 27.2688C40.2073 23.6465 40.0355 19.7853 38.682 16.2692C37.3285 12.7531 34.8668 9.77342 31.6693 7.78071C28.4718 5.78801 24.7124 4.89069 20.9596 5.22446C17.2068 5.55823 13.6648 7.10494 10.8692 9.63067C8.07356 12.1564 6.17642 15.5238 5.46466 19.2235C4.75291 22.9233 5.26525 26.7542 6.92422 30.1369C7.12672 30.5494 7.19422 31.0144 7.0911 31.4606L5.5611 38.0906C5.51796 38.2767 5.52291 38.4707 5.57547 38.6543C5.62803 38.8379 5.72648 39.0051 5.86154 39.1402C5.99659 39.2753 6.16381 39.3737 6.34743 39.4263C6.53105 39.4788 6.72503 39.4838 6.9111 39.4406L13.5392 37.9088C13.9867 37.8108 14.4544 37.8704 14.863 38.0775C17.2393 39.2445 19.8524 39.8489 22.4998 39.8438Z" stroke="#00C6FF" stroke-width="1.5" stroke-linecap="round" stroke-linejoin="round"/>
<path d="M17.4395 18.2044C17.4394 17.4014 17.6304 16.61 17.9966 15.8954C18.3629 15.1809 18.894 14.5637 19.5459 14.095C20.1979 13.6262 20.952 13.3194 21.746 13.1997C22.54 13.0801 23.3511 13.1511 24.1123 13.4069C24.8734 13.6627 25.5627 14.096 26.1233 14.6709C26.6839 15.2458 27.0996 15.9458 27.3362 16.7131C27.5727 17.4805 27.6232 18.2931 27.4836 19.0838C27.344 19.8745 27.0182 20.6207 26.5332 21.2606C26.3445 21.4699 26.1442 21.6683 25.9332 21.855C25.7607 22.0013 25.6763 22.0613 25.5076 22.1756L23.672 23.4413C23.2181 23.7535 22.8471 24.1716 22.591 24.6593C22.3349 25.147 22.2014 25.6898 22.202 26.2406" stroke="#00C6FF" stroke-width="1.5" stroke-linecap="round" stroke-linejoin="round"/>
<path d="M22.1772 33.2625C23.2128 33.2625 24.0522 32.423 24.0522 31.3875C24.0522 30.352 23.2128 29.5125 22.1772 29.5125C21.1417 29.5125 20.3022 30.352 20.3022 31.3875C20.3022 32.423 21.1417 33.2625 22.1772 33.2625Z" fill="#00C6FF"/>
</svg>
